# xmcd CD database file
# Copyright (C) 1996 Ti Kan
#
# Track frame offsets:
#  150
#  16577
#  30887
#  45870
#  61312
#  74002
#  85680
#  102982
#  116955
#  139617
#  152242
#  169232
#  185380
#  207692
#  229212
#  253262
#  265357
#  282615
#  297022
#  313285
#
# Disc length: 4493 seconds
#
# Revision: 1
# Processed by: cddbd v1.4b41PL1 Copyright (c) Steve Scherf et al.
# Submitted via: CDWizzard Release:4.14
#
DISCID=2a118b14
DTITLE=The Original Salty Dogs Jazz Band - Joy, Joy, Joy
DYEAR=1900
DGENRE=
TTITLE0=Got Butter on it
TTITLE1=Sunshine
TTITLE2=Sleepy Head
TTITLE3=Ready Hokum
TTITLE4=My Gal Sal
TTITLE5=Daddy let me Lay it on you
TTITLE6=Little Willie Blues
TTITLE7=I'll Keep Sittin' on it (If I can't Sell it)
TTITLE8=Midnight Mama (Papa)
TTITLE9=The Stuff is Here
TTITLE10=Take me Away from the River (Song of the Viper)
TTITLE11=Lina Blues
TTITLE12=Trouble in Mind
TTITLE13=Gee, But I'm Lonesome for you
TTITLE14=Mr. Jelly Lord
TTITLE15=Ace of Rhythm
TTITLE16=Biscuit Roller
TTITLE17=Somebody Stole my Gal
TTITLE18=I Wonder
TTITLE19=Joy, Joy, Joy
EXTD=
EXTT0=The Original Salty Dogs Jazz Band
EXTT1=The Original Salty Dogs Jazz Band
EXTT2=The Original Salty Dogs Jazz Band
EXTT3=The Original Salty Dogs Jazz Band
EXTT4=The Original Salty Dogs Jazz Band
EXTT5=The Original Salty Dogs Jazz Band
EXTT6=The Original Salty Dogs Jazz Band
EXTT7=The Original Salty Dogs Jazz Band
EXTT8=The Original Salty Dogs Jazz Band
EXTT9=The Original Salty Dogs Jazz Band
EXTT10=The Original Salty Dogs Jazz Band
EXTT11=The Original Salty Dogs Jazz Band
EXTT12=The Original Salty Dogs Jazz Band
EXTT13=The Original Salty Dogs Jazz Band
EXTT14=The Original Salty Dogs Jazz Band
EXTT15=The Original Salty Dogs Jazz Band
EXTT16=The Original Salty Dogs Jazz Band
EXTT17=The Original Salty Dogs Jazz Band
EXTT18=The Original Salty Dogs Jazz Band
EXTT19=The Original Salty Dogs Jazz Band
PLAYORDER=
